# xmcd CD database file
#
# Track frame offsets:
#	150
#	12562
#	24911
#	37580
#	49226
#	61375
#	73637
#	86630
#	99839
#	113333
#	127293
#	138309
#	151139
#	164298
#	177620
#	188609
#	201300
#	213616
#	224689
#	237953
#
# Disc length: 3319 seconds
#
# Revision: 2
# Processed by: cddbd v1.5.2PL0 Copyright (c) Steve Scherf et al.
# Submitted via: CDex 1.51
#
DISCID=1a0cf514
DTITLE=Hank Williams - Golden Greats CD2
DYEAR=2003
DGENRE=Country
TTITLE0=I saw the light
TTITLE1=I won't be home no more
TTITLE2=Pan American
TTITLE3=I heard my mother praying for me
TTITLE4=Never again (Will I knock on your door)
TTITLE5=Fly trouble
TTITLE6=Calling you
TTITLE7=I've just told mama goodbye
TTITLE8=Too many parties and too many pals
TTITLE9=The funeral
TTITLE10=No no Joe
TTITLE11=Everythings okay
TTITLE12=Wedding bells
TTITLE13=You're gonna change (or I'm gonna leave)
TTITLE14=I'll never get out of this world alive
TTITLE15=I just don't like this kind of living
TTITLE16=Howling at the moon
TTITLE17=Crazy heart
TTITLE18=Help me understand
TTITLE19=My heart would know
EXTD=YEAR: 2003
EXTT0=
EXTT1=
EXTT2=
EXTT3=
EXTT4=
EXTT5=
EXTT6=
EXTT7=
EXTT8=
EXTT9=
EXTT10=
EXTT11=
EXTT12=
EXTT13=
EXTT14=
EXTT15=
EXTT16=
EXTT17=
EXTT18=
EXTT19=
PLAYORDER=
